<svg width="163" height="31" viewBox="0 0 163 31" fill="none" xmlns="http://www.w3.org/2000/svg">
<path d="M0.910226 26.8528C1.54478 26.4666 2.08737 26.0619 2.53799 25.6389C2.99781 25.2159 3.37486 24.7469 3.66915 24.2319C3.96343 23.7261 4.17955 23.1605 4.31749 22.5351C4.45544 21.9006 4.52441 21.1832 4.52441 20.3832V1.71905H8.89731V19.5969C8.89731 20.5533 8.85592 21.427 8.77316 22.2178C8.69039 22.9995 8.55244 23.7169 8.35932 24.3698C8.17539 25.0319 7.92249 25.6389 7.60061 26.1907C7.28794 26.7425 6.89709 27.2667 6.42807 27.7633C5.96825 28.2599 5.42106 28.7381 4.78651 29.1979C4.16116 29.6577 3.43464 30.1222 2.60696 30.5912L0.910226 26.8528ZM14.4979 1.71905H32.8585V5.55395H18.8708V9.85787H31.2584V13.4583H18.8708V19.4589H33.1482V23.28H14.4979V1.71905ZM38.0039 1.71905H56.3646V5.55395H42.3768V9.85787H54.7644V13.4583H42.3768V19.4589H56.6543V23.28H38.0039V1.71905Z" fill="#F29D38"/>
<path d="M69.5798 12.3685C69.5798 10.8327 69.8695 9.40265 70.4489 8.07837C71.0282 6.74489 71.8651 5.59074 72.9595 4.61592C74.0631 3.6319 75.4057 2.8594 76.9875 2.29842C78.5785 1.73744 80.3764 1.45695 82.3812 1.45695C84.1377 1.45695 85.7471 1.63628 87.2093 1.99494C88.6808 2.3444 90.0464 2.88239 91.3063 3.60891L89.2923 6.91962C88.9153 6.67132 88.4784 6.4506 87.9818 6.25748C87.4944 6.06435 86.9702 5.90342 86.4092 5.77467C85.8575 5.63672 85.2827 5.53096 84.6849 5.45739C84.0963 5.38382 83.5124 5.34703 82.933 5.34703C81.5351 5.34703 80.289 5.52176 79.1947 5.87123C78.1003 6.21149 77.176 6.69431 76.4219 7.31966C75.677 7.93582 75.1069 8.67613 74.7114 9.54059C74.3252 10.3959 74.132 11.3385 74.132 12.3685C74.132 13.4353 74.3344 14.4147 74.739 15.3067C75.1436 16.1988 75.7276 16.9713 76.4909 17.6242C77.2634 18.268 78.2014 18.7738 79.305 19.1416C80.4178 19.5003 81.6731 19.6796 83.0709 19.6796C83.7055 19.6796 84.3354 19.6337 84.9608 19.5417C85.5862 19.4497 86.1885 19.3256 86.7679 19.1692C87.3565 19.0037 87.922 18.8106 88.4646 18.5899C89.0072 18.36 89.513 18.1116 89.982 17.845L91.9961 21.1557C90.8189 21.9098 89.4578 22.5029 87.9129 22.9352C86.3679 23.3582 84.7263 23.5697 82.9882 23.5697C80.7718 23.5697 78.8268 23.2846 77.1531 22.7145C75.4793 22.1351 74.0815 21.3442 72.9595 20.3418C71.8375 19.3302 70.9915 18.1438 70.4213 16.7828C69.8603 15.4125 69.5798 13.9411 69.5798 12.3685ZM95.3344 15.1412C95.3344 13.9733 95.5689 12.8789 96.0379 11.8581C96.5161 10.8373 97.192 9.94524 98.0657 9.18193C98.9485 8.41863 100.011 7.81627 101.252 7.37484C102.503 6.93341 103.905 6.7127 105.46 6.7127C107.014 6.7127 108.412 6.93341 109.653 7.37484C110.904 7.81627 111.966 8.41863 112.84 9.18193C113.723 9.94524 114.399 10.8373 114.868 11.8581C115.346 12.8789 115.585 13.9733 115.585 15.1412C115.585 16.3092 115.346 17.4035 114.868 18.4243C114.399 19.4451 113.723 20.3372 112.84 21.1005C111.966 21.8638 110.904 22.4661 109.653 22.9076C108.412 23.349 107.014 23.5697 105.46 23.5697C103.905 23.5697 102.503 23.349 101.252 22.9076C100.011 22.4661 98.9485 21.8638 98.0657 21.1005C97.192 20.3372 96.5161 19.4451 96.0379 18.4243C95.5689 17.4035 95.3344 16.3092 95.3344 15.1412ZM99.6245 15.1412C99.6245 15.7942 99.7532 16.4149 100.011 17.0035C100.277 17.5829 100.659 18.0979 101.156 18.5485C101.661 18.9899 102.273 19.344 102.99 19.6107C103.717 19.8682 104.54 19.9969 105.46 19.9969C106.379 19.9969 107.198 19.8682 107.915 19.6107C108.642 19.344 109.253 18.9899 109.75 18.5485C110.256 18.0979 110.637 17.5829 110.895 17.0035C111.161 16.4149 111.295 15.7942 111.295 15.1412C111.295 14.4883 111.161 13.8675 110.895 13.2789C110.637 12.6904 110.256 12.1754 109.75 11.7339C109.253 11.2833 108.642 10.9293 107.915 10.6718C107.198 10.4051 106.379 10.2717 105.46 10.2717C104.54 10.2717 103.717 10.4051 102.99 10.6718C102.273 10.9293 101.661 11.2833 101.156 11.7339C100.659 12.1754 100.277 12.6904 100.011 13.2789C99.7532 13.8675 99.6245 14.4883 99.6245 15.1412ZM118.454 15.2102C118.454 13.9135 118.698 12.7455 119.185 11.7063C119.673 10.658 120.344 9.76591 121.199 9.03019C122.064 8.28528 123.085 7.71511 124.262 7.31966C125.448 6.91502 126.731 6.7127 128.11 6.7127C128.699 6.7127 129.278 6.74948 129.848 6.82306C130.428 6.89663 130.98 6.99779 131.504 7.12654C132.037 7.25529 132.534 7.41163 132.994 7.59555C133.463 7.77029 133.877 7.96341 134.235 8.17493V0.394766H138.318V23.28H134.235V21.7488C133.877 21.9971 133.453 22.2316 132.966 22.4524C132.479 22.6731 131.954 22.8662 131.393 23.0317C130.832 23.1973 130.249 23.326 129.642 23.418C129.044 23.5191 128.451 23.5697 127.862 23.5697C126.483 23.5697 125.213 23.3674 124.055 22.9628C122.905 22.5581 121.917 21.9879 121.089 21.2522C120.261 20.5165 119.613 19.6383 119.144 18.6175C118.684 17.5875 118.454 16.4517 118.454 15.2102ZM122.744 15.2102C122.744 15.8631 122.873 16.4793 123.131 17.0587C123.397 17.638 123.774 18.1484 124.262 18.5899C124.758 19.0221 125.351 19.367 126.041 19.6245C126.74 19.8728 127.522 19.9969 128.386 19.9969C128.938 19.9969 129.49 19.9463 130.042 19.8452C130.593 19.7348 131.122 19.5831 131.628 19.3899C132.143 19.1968 132.621 18.9623 133.063 18.6864C133.513 18.4105 133.904 18.1025 134.235 17.7622V12.1202C133.821 11.7891 133.384 11.5086 132.925 11.2787C132.465 11.0488 131.996 10.8603 131.518 10.7131C131.039 10.566 130.557 10.4602 130.069 10.3959C129.582 10.3223 129.108 10.2855 128.648 10.2855C127.71 10.2855 126.873 10.4143 126.138 10.6718C125.411 10.9201 124.795 11.2649 124.289 11.7063C123.793 12.1478 123.411 12.6674 123.144 13.2651C122.878 13.8629 122.744 14.5113 122.744 15.2102ZM142.553 15.086C142.553 13.9825 142.779 12.9295 143.229 11.9271C143.68 10.9155 144.328 10.0234 145.174 9.25091C146.02 8.47841 147.055 7.86225 148.278 7.40243C149.51 6.94261 150.908 6.7127 152.472 6.7127C154.026 6.7127 155.424 6.94721 156.665 7.41622C157.916 7.87604 158.973 8.5106 159.838 9.31988C160.712 10.1292 161.378 11.081 161.838 12.1754C162.307 13.2697 162.542 14.4423 162.542 15.693C162.542 15.8493 162.537 16.0195 162.528 16.2034C162.528 16.3781 162.519 16.5391 162.5 16.6862H147.106C147.28 17.1736 147.561 17.6196 147.947 18.0243C148.342 18.4289 148.834 18.7784 149.423 19.0727C150.012 19.367 150.692 19.5969 151.465 19.7624C152.237 19.9187 153.092 19.9969 154.03 19.9969C154.968 19.9969 155.902 19.9003 156.831 19.7072C157.76 19.5049 158.647 19.252 159.493 18.9485L160.873 22.0661C160.339 22.3144 159.797 22.5351 159.245 22.7282C158.702 22.9122 158.132 23.0685 157.534 23.1973C156.946 23.3168 156.325 23.4088 155.672 23.4732C155.028 23.5375 154.348 23.5697 153.63 23.5697C151.8 23.5697 150.196 23.349 148.816 22.9076C147.437 22.4661 146.282 21.8638 145.354 21.1005C144.425 20.3372 143.726 19.4405 143.257 18.4105C142.788 17.3805 142.553 16.2724 142.553 15.086ZM158.21 13.4996C158.063 13.049 157.833 12.6306 157.52 12.2443C157.217 11.8489 156.835 11.5086 156.376 11.2235C155.916 10.9293 155.382 10.6993 154.775 10.5338C154.168 10.3683 153.502 10.2855 152.775 10.2855C152.003 10.2855 151.299 10.3729 150.665 10.5476C150.03 10.7223 149.474 10.9568 148.995 11.2511C148.517 11.5454 148.117 11.8857 147.795 12.2719C147.483 12.6582 147.253 13.0674 147.106 13.4996H158.21Z" fill="#0163FD"/>
</svg>
